<svg width="70" height="70" viewBox="0 0 70 70" fill="none" xmlns="http://www.w3.org/2000/svg">
<g clip-path="url(#clip0_3806_15398)">
<g clip-path="url(#clip1_3806_15398)">
<path d="M70 35C70 15.67 54.33 0 35 0C15.67 0 0 15.67 0 35C0 54.33 15.67 70 35 70C54.33 70 70 54.33 70 35Z" fill="white"/>
<mask id="mask0_3806_15398" style="mask-type:luminance" maskUnits="userSpaceOnUse" x="5" y="30" width="60" height="10">
<path d="M64.8397 30H5V39.7037H64.8397V30Z" fill="white"/>
</mask>
<g mask="url(#mask0_3806_15398)">
<path fill-rule="evenodd" clip-rule="evenodd" d="M37.8344 34.5012C37.8344 34.5012 37.2367 34.0883 36.9005 33.9644C36.9005 33.9644 35.7799 33.3863 35.5558 33.1385C35.5558 33.1385 35.1076 32.6843 35.369 32.1475C35.369 32.1475 35.4811 31.8171 35.9293 31.8171C35.9293 31.8171 36.527 31.8584 36.527 32.3952V33.1798H38.6561V32.0649C38.6561 32.0649 38.8055 30.2068 36.1161 30.1241C36.1161 30.1241 33.987 29.959 33.3893 31.239C33.3893 31.239 33.1652 31.5281 33.1652 32.4779V33.1798C33.1652 33.1798 33.1279 34.0056 33.5014 34.5012C33.5014 34.5012 33.7255 34.8315 34.2484 35.2444C34.2484 35.2444 35.3317 35.8638 35.9667 36.2355C35.9667 36.2355 36.6017 36.6484 36.527 37.309C36.527 37.309 36.4897 37.9698 35.8546 37.9284C35.8546 37.9284 35.2943 37.8871 35.2943 37.2678V36.4832H33.0158V37.5981C33.0158 37.5981 32.9411 39.7453 35.892 39.7453C35.892 39.7453 38.6935 39.8279 38.8429 37.5568V36.607C38.8055 36.607 38.9176 35.2032 37.8344 34.5012Z" fill="black"/>
<path fill-rule="evenodd" clip-rule="evenodd" d="M26.8549 30.3281L26.1452 35.2833H25.9585L25.2861 30.3694H21.7001L21.5508 39.3712H23.6425L23.6799 32.5992H23.8293L24.9499 39.3712H27.1911L28.3117 32.5992H28.4611L28.4984 39.3712H30.6276L30.4034 30.3281H26.8549Z" fill="black"/>
<path fill-rule="evenodd" clip-rule="evenodd" d="M14.2632 30.375L12.8438 39.3768H15.1223L15.944 32.3983H16.1308L16.9899 39.3768H19.2684L17.849 30.375H14.2632Z" fill="black"/>
<path fill-rule="evenodd" clip-rule="evenodd" d="M62.1147 34.3781V35.6994H62.7123V37.1033C62.7123 37.8053 62.1894 37.8053 62.1894 37.8053C61.517 37.8053 61.5544 37.1446 61.5544 37.1446V32.2308C61.5544 31.7353 62.1521 31.694 62.1521 31.694C62.7123 31.694 62.7123 32.3134 62.7123 32.3134V33.0566H64.8415C64.9162 31.6114 64.6547 31.2398 64.6547 31.2398C64.1317 29.9185 62.1147 30.001 62.1147 30.001C59.0144 30.001 59.3505 32.6437 59.3505 32.6437V37.3924C59.4252 39.87 62.4509 39.6222 62.5256 39.6222C63.8703 39.457 64.2811 38.9615 64.2811 38.9615C64.6547 38.6311 64.7667 38.2182 64.7667 38.2182C64.8788 37.9705 64.9162 37.1859 64.9162 37.1859V34.3781H62.1147Z" fill="black"/>
<path fill-rule="evenodd" clip-rule="evenodd" d="M54.9752 35.82H54.9006L52.6967 30.3281H50.082V39.3712H52.2111L52.099 33.8793H52.1738L54.4523 39.3712H56.955V30.3281H54.8259L54.9752 35.82Z" fill="black"/>
<path fill-rule="evenodd" clip-rule="evenodd" d="M44.929 37.1414C44.929 37.1414 44.9664 37.8847 44.3314 37.8847C44.3314 37.8847 43.659 37.9259 43.659 37.1414V30.3281H41.3431V37.0588C41.3431 37.0588 41.119 39.619 44.3687 39.619C44.3687 39.619 47.2076 39.6602 47.2076 37.1827V30.3281H44.929V37.1414Z" fill="black"/>
<path fill-rule="evenodd" clip-rule="evenodd" d="M9.81873 34.5059C9.81873 34.5059 9.22106 34.093 8.88482 33.9692C8.88482 33.9692 7.76428 33.3911 7.54013 33.1433C7.54013 33.1433 7.0919 32.6891 7.35341 32.1523C7.35341 32.1523 7.46541 31.8219 7.91372 31.8219C7.91372 31.8219 8.51131 31.8632 8.51131 32.4V33.1846H10.6405V32.0697C10.6405 32.0697 10.7899 30.2115 8.10044 30.1289C8.10044 30.1289 7.91372 30.1289 7.61485 30.1289C7.61485 30.1289 5.97136 30.2115 5.41105 31.2025C5.41105 31.2025 5.18689 31.4916 5.18689 32.4413V33.1433C5.18689 33.1433 5.14953 33.9692 5.52304 34.4646C5.52304 34.4646 5.7472 34.7949 6.27015 35.2079C6.27015 35.2079 7.31605 35.8273 7.98836 36.1989C7.98836 36.1989 8.62339 36.6119 8.54867 37.2726C8.54867 37.2726 8.51131 37.9332 7.87636 37.8919C7.87636 37.8919 7.31605 37.8507 7.31605 37.2312V36.4467H5.00017V37.5616C5.00017 37.5616 4.92546 39.7088 7.87636 39.7088C7.87636 39.7088 10.6778 39.7914 10.8272 37.5203V36.6119C10.7899 36.6119 10.9019 35.2079 9.81873 34.5059Z" fill="black"/>
</g>
</g>
</g>
<defs>
<clipPath id="clip0_3806_15398">
<rect width="70" height="70" fill="white"/>
</clipPath>
<clipPath id="clip1_3806_15398">
<rect width="70" height="70" fill="white"/>
</clipPath>
</defs>
</svg>
