<svg width="70" height="70" viewBox="0 0 70 70" fill="none" xmlns="http://www.w3.org/2000/svg">
<g clip-path="url(#clip0_8432_19819)">
<g clip-path="url(#clip1_8432_19819)">
<g clip-path="url(#clip2_8432_19819)">
<path d="M70 35C70 15.67 54.33 0 35 0C15.67 0 0 15.67 0 35C0 54.33 15.67 70 35 70C54.33 70 70 54.33 70 35Z" fill="#64FF01"/>
<path d="M9.79688 40.3654H11.6666V30.2783H9.79688V40.3654Z" fill="white"/>
<path d="M31.4844 40.3653H33.333V32.5225H31.4844V40.3653Z" fill="white"/>
<path d="M46.6953 40.3655H48.5654V32.5332H46.6953V40.3655Z" fill="white"/>
<path d="M20.6585 32.5332H16.4699C16.4699 32.5332 15.7084 32.5332 15.4313 33.0903V32.5332H13.5625V40.3655H15.4313V35.3249C15.4313 34.7052 15.9303 34.2039 16.5463 34.2039H20.0982C20.7124 34.2039 21.2123 34.7052 21.2123 35.3249V40.3655H23.0454V34.761C23.0454 34.761 22.9073 32.5332 20.6585 32.5332Z" fill="white"/>
<path d="M42.5964 32.5332H38.4088C38.4088 32.5332 37.6473 32.5332 37.3697 33.0903V32.5332H35.5V40.3655H37.3697V35.3249C37.3697 34.7052 37.8687 34.2039 38.4842 34.2039H42.0352C42.6513 34.2039 43.1503 34.7052 43.1503 35.3249V40.3655H44.9838V34.761C44.9838 34.761 44.8457 32.5332 42.5964 32.5332Z" fill="white"/>
<path d="M31.4844 31.044H33.4012V29.4189H31.4844V31.044Z" fill="white"/>
<path d="M48.5419 29.4189H46.6484V31.044H48.5419V29.4189Z" fill="white"/>
<path d="M25.2966 31.5083V32.524H22.8516C22.8516 32.524 23.5211 32.7843 23.9817 34.2112H25.2861V40.3655H27.154V34.2112H29.8656V32.524H27.154C27.154 32.524 27.143 32.5867 27.1311 32.524V31.8462C27.1311 31.0752 27.5033 31.0449 28.3755 31.0449H29.8656V29.4195H28.3755C28.3755 29.4195 25.2966 29.0555 25.2966 31.5083Z" fill="white"/>
<path d="M59.8005 32.5332H57.4679L54.7754 35.2668L52.0821 32.5332H49.75L53.6028 36.456L49.75 40.3655H52.1113L54.7754 37.6524L57.4396 40.3655H59.8005L55.9482 36.456L59.8005 32.5332Z" fill="white"/>
</g>
</g>
</g>
<defs>
<clipPath id="clip0_8432_19819">
<rect width="70" height="70" fill="white"/>
</clipPath>
<clipPath id="clip1_8432_19819">
<rect width="70" height="70" fill="white"/>
</clipPath>
<clipPath id="clip2_8432_19819">
<rect width="70" height="70" fill="white"/>
</clipPath>
</defs>
</svg>
