<svg width="70" height="70" viewBox="0 0 70 70" fill="none" xmlns="http://www.w3.org/2000/svg">
<g clip-path="url(#clip0_3458_15068)">
<g clip-path="url(#clip1_3458_15068)">
<g clip-path="url(#clip2_3458_15068)">
<path d="M70 35C70 15.67 54.33 0 35 0C15.67 0 0 15.67 0 35C0 54.33 15.67 70 35 70C54.33 70 70 54.33 70 35Z" fill="#FFC915"/>
<g clip-path="url(#clip3_3458_15068)">
<path d="M27.8396 42.1776C26.6546 42.0405 25.6968 41.6026 24.9272 40.8465C23.9756 39.9121 23.4705 38.6523 23.4705 37.2127C23.4705 34.3191 25.5537 32.1977 28.3899 32.2023C29.1377 32.2036 29.8836 32.378 30.542 32.7064C30.8559 32.863 31.2575 33.1304 31.4698 33.3243C31.5503 33.3978 31.6238 33.4578 31.6331 33.4578C31.6423 33.4578 31.6502 33.2129 31.6502 32.9138V32.3691H32.8784V42.0563H31.6502V40.9349L31.5381 41.0279C30.7145 41.7104 29.9647 42.0428 28.9709 42.1664C28.7533 42.1935 28.0368 42.2007 27.8396 42.1776ZM28.9722 40.8953C30.457 40.6461 31.4863 39.5972 31.7798 38.0344C31.848 37.672 31.8497 36.7603 31.7831 36.4032C31.7053 35.9868 31.6011 35.6673 31.428 35.3145C30.9169 34.2732 30.0164 33.6422 28.8166 33.4839C28.4011 33.4288 27.7945 33.4641 27.3975 33.566C26.2398 33.8631 25.3469 34.7019 24.9427 35.8727C24.7749 36.3591 24.7409 36.5846 24.7409 37.2127C24.7409 37.6957 24.7498 37.8102 24.8059 38.0617C25.1422 39.5643 26.2204 40.6362 27.656 40.8963C27.954 40.9501 28.6484 40.9497 28.9722 40.8953ZM17.127 42.1387C16.306 42.0527 15.5477 41.7859 14.8991 41.3556C14.5364 41.1149 13.9693 40.5445 13.722 40.1719C13.118 39.2613 12.8281 38.1686 12.8707 36.9615C12.9096 35.8641 13.2149 34.9271 13.8077 34.0863C13.8941 33.9633 14.116 33.7114 14.3 33.5261C14.9578 32.8653 15.7498 32.4469 16.7043 32.256C17.0888 32.1792 17.949 32.1502 18.349 32.2003C20.1914 32.4324 21.5717 33.6662 22.0458 35.5057C22.1612 35.9538 22.2133 36.3353 22.2334 36.8846L22.2509 37.366H14.1101L14.1285 37.6522C14.211 38.9246 14.9492 40.0645 16.0515 40.621C16.5724 40.8841 17.0693 40.9985 17.6941 40.9992C18.7657 41.0005 19.5752 40.6695 20.2495 39.9553C20.418 39.7769 20.7981 39.2662 20.8637 39.1307C20.872 39.1139 21.9353 39.8099 21.9353 39.832C21.9353 39.8996 21.4998 40.4792 21.2594 40.7308C20.3718 41.6606 19.2719 42.1189 17.8455 42.1529C17.5843 42.1595 17.2612 42.1529 17.127 42.1387ZM20.9722 36.1589C20.7411 34.7035 19.748 33.6484 18.348 33.3711C18.0532 33.3128 17.2912 33.3194 16.9941 33.383C16.2885 33.5343 15.7 33.8397 15.211 34.3085C14.6934 34.8051 14.3485 35.4286 14.1638 36.2008L14.1454 36.2776H20.9907L20.9722 36.1589ZM57.9055 42.1367C55.7666 41.9376 54.1787 40.4881 53.7484 38.3433C53.4559 36.8836 53.7273 35.3617 54.4814 34.2366C55.2034 33.1585 56.2325 32.4918 57.5639 32.2379C57.9398 32.1663 59.0575 32.1667 59.413 32.2389C60.3012 32.4192 61.0359 32.806 61.6475 33.416C62.5295 34.295 63 35.5384 63 36.9882V37.366L58.9451 37.3733L54.8905 37.3802L54.8978 37.6037C54.9275 38.4831 55.3429 39.4027 55.9954 40.0315C56.5012 40.5191 57.1148 40.8278 57.8306 40.9554C58.1488 41.0117 58.8323 41.0114 59.1525 40.9554C60.1446 40.7793 60.8631 40.2916 61.4777 39.3763C61.5654 39.2458 61.6475 39.1419 61.6603 39.1455C61.6933 39.1541 62.6446 39.7661 62.6851 39.805C62.728 39.8455 62.4662 40.2402 62.1599 40.5969C61.1816 41.7342 59.626 42.2973 57.9055 42.1367ZM61.7434 36.2008C61.7434 36.1586 61.719 36.0224 61.6894 35.8981C61.3537 34.4981 60.3652 33.566 58.9942 33.356C58.4716 33.2758 57.8481 33.3309 57.3192 33.5043C56.1755 33.8792 55.2911 34.8272 54.9875 36.003C54.9571 36.1207 54.9324 36.2305 54.9324 36.2469C54.9324 36.2687 55.9117 36.2776 58.3381 36.2776H61.7441L61.7438 36.2008H61.7434ZM7 37.1985V32.3414H12.8067V33.4855L10.5244 33.4928L8.24239 33.4997L8.23513 37.7782L8.22821 42.0563H7V37.1985ZM35.0279 35.2443V28.4609H36.2841V42.0283H35.0279V35.2443ZM38.4339 37.1843V32.3408H39.6621L39.6634 32.9761L39.6647 33.6112L39.7682 33.4859C40.1095 33.0711 40.4613 32.7793 40.8596 32.5805C41.3344 32.3431 41.7522 32.2395 42.342 32.2112C43.0226 32.1792 43.5762 32.2847 44.1149 32.5491C44.6864 32.8294 45.0975 33.2323 45.4849 33.8921C45.5113 33.9376 45.5278 33.9251 45.6284 33.7773C46.1562 33.0042 46.9416 32.4928 47.9255 32.2817C48.3156 32.198 49.1725 32.1894 49.5504 32.2652C50.2411 32.4047 50.7852 32.6853 51.2353 33.1351C51.7143 33.6138 52.0084 34.1905 52.1891 35.0039L52.264 35.3419L52.2732 38.6852L52.2821 42.0279H51.0519V39.044C51.0519 37.1834 51.0411 35.9512 51.0229 35.7708C50.9082 34.6247 50.315 33.7965 49.3878 33.4872C49.024 33.3673 48.6385 33.3275 48.2579 33.3705C47.062 33.5001 46.2891 34.147 46.0191 35.2443C45.9617 35.4771 45.9604 35.545 45.9508 38.7548L45.9409 42.0279H44.715V39.101C44.715 37.3515 44.7035 36.0323 44.6864 35.8219C44.5723 34.4147 43.7997 33.5228 42.5656 33.3728C41.4396 33.2356 40.2707 33.8931 39.8467 34.9027C39.6693 35.3237 39.6796 35.1055 39.6693 38.7274L39.6601 42.0283H38.4335V37.1847L38.4339 37.1843Z" fill="white"/>
</g>
</g>
</g>
</g>
<defs>
<clipPath id="clip0_3458_15068">
<rect width="70" height="70" fill="white"/>
</clipPath>
<clipPath id="clip1_3458_15068">
<rect width="70" height="70" fill="white"/>
</clipPath>
<clipPath id="clip2_3458_15068">
<rect width="70" height="70" fill="white"/>
</clipPath>
<clipPath id="clip3_3458_15068">
<rect width="56" height="14.224" fill="white" transform="translate(7 28.2734)"/>
</clipPath>
</defs>
</svg>
